HIERARCHY
ROOT Hips
{
    OFFSET 0.000000 0.000000 0.000000
    CHANNELS 6 Xposition Yposition Zposition Zrotation Xrotation Yrotation
    JOINT Spine
    {
        OFFSET -0.000000 6.925600 0.000000
        CHANNELS 3 Zrotation Xrotation Yrotation
        JOINT Spine1
        {
            OFFSET -0.000000 16.343796 0.000000
            CHANNELS 3 Zrotation Xrotation Yrotation
            JOINT Neck
            {
                OFFSET -0.000000 18.032967 0.000000
                CHANNELS 3 Zrotation Xrotation Yrotation
                JOINT Head
                {
                    OFFSET -0.000000 13.091072 1.689171
                    CHANNELS 3 Zrotation Xrotation Yrotation
                    End Site
                    {
                        OFFSET -0.000000 16.891708 0.000000
                    }
                }
            }
            JOINT LeftShoulder
            {
                OFFSET 3.336773 14.146137 -0.012206
                CHANNELS 3 Zrotation Xrotation Yrotation
                JOINT LeftArm
                {
                    OFFSET 11.765518 0.000000 0.000000
                    CHANNELS 3 Zrotation Xrotation Yrotation
                    JOINT LeftForeArm
                    {
                        OFFSET 25.163450 0.000000 0.000000
                        CHANNELS 3 Zrotation Xrotation Yrotation
                        JOINT LeftHand
                        {
                            OFFSET 21.783554 0.000000 0.000000
                            CHANNELS 3 Zrotation Xrotation Yrotation
                            End Site
                            {
                                OFFSET 12.668781 0.000000 0.000000
                            }
                        }
                    }
                }
            }
            JOINT RightShoulder
            {
                OFFSET -3.409204 14.146137 -0.012206
                CHANNELS 3 Zrotation Xrotation Yrotation
                JOINT RightArm
                {
                    OFFSET -11.765518 0.000000 0.000000
                    CHANNELS 3 Zrotation Xrotation Yrotation
                    JOINT RightForeArm
                    {
                        OFFSET -25.163450 0.000000 0.000000
                        CHANNELS 3 Zrotation Xrotation Yrotation
                        JOINT RightHand
                        {
                            OFFSET -21.783554 0.000000 0.000000
                            CHANNELS 3 Zrotation Xrotation Yrotation
                            End Site
                            {
                                OFFSET -12.668781 0.000000 0.000000
                            }
                        }
                    }
                }
            }
        }
    }
    JOINT LeftUpLeg
    {
        OFFSET 8.445854 0.000000 0.000000
        CHANNELS 3 Zrotation Xrotation Yrotation
        JOINT LeftLeg
        {
            OFFSET -0.000000 -40.674755 0.000000
            CHANNELS 3 Zrotation Xrotation Yrotation
            JOINT LeftFoot
            {
                OFFSET -0.000000 -37.111794 0.000000
                CHANNELS 3 Zrotation Xrotation Yrotation
                JOINT LeftToeBase
                {
                    OFFSET -0.000000 -5.489805 12.668781
                    CHANNELS 3 Zrotation Xrotation Yrotation
                    End Site
                    {
                        OFFSET -0.000000 0.000000 3.378341
                    }
                }
            }
        }
    }
    JOINT RightUpLeg
    {
        OFFSET -8.445854 0.000000 0.000000
        CHANNELS 3 Zrotation Xrotation Yrotation
        JOINT RightLeg
        {
            OFFSET -0.000000 -40.674755 0.000000
            CHANNELS 3 Zrotation Xrotation Yrotation
            JOINT RightFoot
            {
                OFFSET -0.000000 -37.111794 0.000000
                CHANNELS 3 Zrotation Xrotation Yrotation
                JOINT RightToeBase
                {
                    OFFSET -0.000000 -5.489805 12.668781
                    CHANNELS 3 Zrotation Xrotation Yrotation
                    End Site
                    {
                        OFFSET -0.000000 0.000000 3.378341
                    }
                }
            }
        }
    }
}
MOTION
Frames:    7
Frame Time:    0.008333
82.016464    82.457748    134.358978    -6.627846    -4.449074    -95.409744    3.723975    -10.962863    3.143554    -8.022821    39.043026    3.775694    -5.338460    -12.383202    24.878036    -0.733921    -7.660114    25.611732    -3.524760    -8.537330    2.964090    -42.487228    48.080235    -28.519014    8.600156    -1.741262    -31.106323    1.696747    0.638775    -1.230062    2.909196    -5.857096    -0.130998    36.882256    49.848141    37.653606    -3.646223    2.060350    26.685400    -9.663583    2.417789    5.997164    -0.854644    3.470444    -3.245889    2.759452    8.433228    4.358375    -7.156370    -4.075757    18.217718    -3.365694    -2.642481    4.142192    -2.746823    10.660978    3.895961    -8.147585    0.188639    -12.573538    9.151199    -10.182172    0.201202    -4.376031    6.452563    1.710706    
82.457085    82.872734    134.200668    -5.314719    -2.840526    -95.726433    5.805218    -11.827638    3.505122    -8.352848    38.790302    3.909564    -5.864001    -10.878668    24.877901    -0.972424    -9.211877    25.519295    -4.833546    -8.589142    1.375612    -42.561092    47.174553    -26.815990    8.667803    -1.816740    -30.869713    1.799307    0.553521    -1.756991    3.833885    -5.536420    1.531054    37.293873    48.850307    36.044113    -3.704190    2.137259    26.337410    -10.071228    2.459291    6.175800    1.126578    1.852439    -2.889690    2.400181    8.847272    4.411406    -7.094845    -4.038159    18.193829    -3.364759    -2.641545    4.141378    -0.849980    8.665137    4.309910    -8.174440    1.086306    -12.569141    9.039097    -10.274583    0.249605    -4.404854    6.503334    1.708537    
82.036522    82.458038    134.368347    -6.635133    -4.432847    -95.445076    3.844748    -10.935308    3.093333    -8.304276    39.017914    3.853657    -5.335218    -12.391443    24.918840    -0.678792    -7.668965    25.651421    -3.459590    -8.544446    3.041442    -42.428211    47.985546    -28.504021    8.331122    -1.801649    -31.204235    1.988478    0.499151    -1.720306    2.961298    -5.820098    -0.080828    36.843716    49.969913    37.785519    -3.723212    2.139731    26.536358    -9.869599    2.500886    5.980697    -0.850532    3.456780    -3.226650    2.763940    8.456578    4.378695    -7.155478    -4.073922    18.209032    -3.382946    -2.663809    4.147857    -2.742952    10.644337    3.843618    -8.148557    0.185724    -12.489860    9.129493    -10.159986    0.211266    -4.362402    6.434732    1.702454    
82.480118    82.871964    134.212524    -5.318158    -2.831460    -95.781319    5.802109    -11.834808    3.517256    -8.356723    38.834732    3.918599    -5.854053    -10.901119    24.879906    -1.024813    -9.178446    25.525084    -4.822281    -8.608178    1.371738    -42.613991    47.069744    -26.809380    8.453540    -1.860063    -30.900110    2.031514    0.440707    -2.250414    3.834463    -5.525724    1.522261    37.236046    48.915874    36.117710    -3.796098    2.223035    26.270531    -9.963882    2.582562    6.032885    1.125805    1.839627    -2.857321    2.397160    8.863479    4.425234    -7.086659    -4.044952    18.201399    -3.358451    -2.628894    4.150614    -0.856760    8.649296    4.387745    -8.169249    1.080081    -12.597498    9.034661    -10.269611    0.248696    -4.397675    6.493402    1.705006    
82.055023    82.457924    134.378738    -6.647420    -4.421114    -95.500504    3.842253    -10.940279    3.107177    -8.305892    39.060642    3.862345    -5.325916    -12.393361    24.917582    -0.737122    -7.656332    25.653427    -3.463268    -8.557086    3.035320    -42.498825    47.865845    -28.472528    8.131962    -1.838671    -31.245924    2.176665    0.397734    -2.182929    2.967024    -5.795722    -0.092019    36.804016    50.008930    37.854900    -3.847644    2.238281    26.497868    -9.582223    2.667030    5.688776    -0.857691    3.453426    -3.174111    2.779484    8.474796    4.372136    -7.158944    -4.082626    18.213802    -3.380389    -2.661284    4.145543    -2.751027    10.639737    3.889475    -8.141088    0.175558    -12.472509    9.152148    -10.189743    0.196066    -4.407391    6.506175    1.710790    
82.064323    82.457603    134.384048    -6.652705    -4.411343    -95.522804    3.864191    -10.932681    3.116976    -8.348621    39.063980    3.880554    -5.297771    -12.385139    24.913902    -0.767858    -7.650642    25.651373    -3.452308    -8.552865    3.028080    -42.533012    47.809212    -28.447769    8.049790    -1.862701    -31.279293    2.277245    0.347649    -2.367938    2.981476    -5.780737    -0.092109    36.801739    50.027328    37.878632    -3.904779    2.295251    26.446999    -9.591375    2.744198    5.580907    -0.855664    3.447003    -3.169452    2.782015    8.492318    4.408650    -7.162223    -4.099015    18.203539    -3.359583    -2.638340    4.132230    -2.750304    10.633379    3.858725    -8.138251    0.170332    -12.434339    9.158611    -10.186075    0.207959    -4.412937    6.515275    1.711378    
82.072784    82.457542    134.388809    -6.658029    -4.407811    -95.554909    3.861709    -10.930971    3.127679    -8.348827    39.075729    3.885236    -5.321042    -12.384306    24.909754    -0.751297    -7.651986    25.645727    -3.447899    -8.564173    3.022190    -42.622829    47.762009    -28.387527    7.996902    -1.903259    -31.307673    2.205916    0.293525    -2.476271    2.986257    -5.762811    -0.100891    36.793388    50.017689    37.893738    -3.828002    0.582043    26.257055    -5.875697    1.139981    6.524343    -0.852871    3.449956    -3.174211    2.767233    8.491116    4.446201    -7.148650    -4.089405    18.198347    -3.351763    -2.635823    4.112984    -2.760712    10.625475    3.862829    -8.131516    0.165986    -12.395588    9.160132    -10.141789    0.206399    -4.372967    6.457967    1.694711    
